<svg xmlns="http://www.w3.org/2000/svg" xmlns:xlink="http://www.w3.org/1999/xlink" width="1080" zoomAndPan="magnify" viewBox="0 0 810 809.999993" height="1080" preserveAspectRatio="xMidYMid meet" version="1.0"><path fill="#ff3131" d="M 101.25 472.5 C 101.25 413.4375 115.3125 360.84375 143.4375 314.71875 C 171.5625 268.59375 202.5 229.78125 236.25 198.28125 C 270 166.78125 300.9375 142.734375 329.0625 126.140625 L 371.25 101.25 L 371.25 212.625 C 371.25 233.4375 378.28125 249.890625 392.34375 261.984375 C 406.40625 274.078125 422.15625 280.125 439.59375 280.125 C 449.15625 280.125 458.296875 278.15625 467.015625 274.21875 C 475.734375 270.28125 483.75 263.8125 491.0625 254.8125 L 506.25 236.25 C 546.75 259.875 579.375 292.640625 604.125 334.546875 C 628.875 376.453125 641.25 422.4375 641.25 472.5 C 641.25 522 629.15625 567.140625 604.96875 607.921875 C 580.78125 648.703125 549 680.90625 509.625 704.53125 C 519.1875 691.03125 526.640625 676.265625 531.984375 660.234375 C 537.328125 644.203125 540 627.1875 540 609.1875 C 540 586.6875 535.78125 565.453125 527.34375 545.484375 C 518.90625 525.515625 506.8125 507.65625 491.0625 491.90625 L 371.25 374.625 L 252.28125 491.90625 C 235.96875 508.21875 223.59375 526.21875 215.15625 545.90625 C 206.71875 565.59375 202.5 586.6875 202.5 609.1875 C 202.5 627.1875 205.171875 644.203125 210.515625 660.234375 C 215.859375 676.265625 223.3125 691.03125 232.875 704.53125 C 193.5 680.90625 161.71875 648.703125 137.53125 607.921875 C 113.34375 567.140625 101.25 522 101.25 472.5 Z M 371.25 469.125 L 442.96875 539.15625 C 452.53125 548.71875 459.84375 559.40625 464.90625 571.21875 C 469.96875 583.03125 472.5 595.6875 472.5 609.1875 C 472.5 636.75 462.65625 660.234375 442.96875 679.640625 C 423.28125 699.046875 399.375 708.75 371.25 708.75 C 343.125 708.75 319.21875 699.046875 299.53125 679.640625 C 279.84375 660.234375 270 636.75 270 609.1875 C 270 596.25 272.53125 583.734375 277.59375 571.640625 C 282.65625 559.546875 289.96875 548.71875 299.53125 539.15625 Z M 708.75 371.25 C 699.1875 371.25 691.171875 368.015625 684.703125 361.546875 C 678.234375 355.078125 675 347.0625 675 337.5 C 675 327.9375 678.234375 319.921875 684.703125 313.453125 C 691.171875 306.984375 699.1875 303.75 708.75 303.75 C 718.3125 303.75 726.328125 306.984375 732.796875 313.453125 C 739.265625 319.921875 742.5 327.9375 742.5 337.5 C 742.5 347.0625 739.265625 355.078125 732.796875 361.546875 C 726.328125 368.015625 718.3125 371.25 708.75 371.25 Z M 675 270 L 675 101.25 L 742.5 101.25 L 742.5 270 Z M 675 270 " fill-opacity="1" fill-rule="nonzero"/></svg>