<svg xmlns="http://www.w3.org/2000/svg" xmlns:xlink="http://www.w3.org/1999/xlink" width="1080" zoomAndPan="magnify" viewBox="0 0 810 809.999993" height="1080" preserveAspectRatio="xMidYMid meet" version="1.0"><defs><clipPath id="a9aea1f19b"><path d="M 405 0 C 181.324219 0 0 181.324219 0 405 C 0 628.675781 181.324219 810 405 810 C 628.675781 810 810 628.675781 810 405 C 810 181.324219 628.675781 0 405 0 Z M 405 0 " clip-rule="nonzero"/></clipPath><clipPath id="4bff9368bf"><path d="M 81 138 L 691.5 138 L 691.5 676 L 81 676 Z M 81 138 " clip-rule="nonzero"/></clipPath></defs><g clip-path="url(#a9aea1f19b)"><rect x="-81" width="972" fill="#ffffff" y="-80.999999" height="971.999992" fill-opacity="1"/></g><g clip-path="url(#4bff9368bf)"><path fill="#283444" d="M 576.839844 195.21875 C 576.839844 193.34375 576.933594 191.472656 577.117188 189.609375 C 577.300781 187.746094 577.574219 185.894531 577.941406 184.054688 C 578.304688 182.21875 578.761719 180.402344 579.304688 178.609375 C 579.847656 176.816406 580.480469 175.054688 581.195312 173.324219 C 581.914062 171.589844 582.714844 169.898438 583.597656 168.246094 C 584.480469 166.59375 585.441406 164.988281 586.484375 163.429688 C 587.523438 161.875 588.636719 160.371094 589.828125 158.921875 C 591.015625 157.472656 592.273438 156.085938 593.597656 154.761719 C 594.921875 153.4375 596.308594 152.179688 597.757812 150.992188 C 599.207031 149.800781 600.710938 148.6875 602.269531 147.648438 C 603.824219 146.605469 605.429688 145.644531 607.082031 144.761719 C 608.734375 143.875 610.429688 143.078125 612.160156 142.359375 C 613.890625 141.644531 615.652344 141.011719 617.445312 140.46875 C 619.238281 139.925781 621.054688 139.46875 622.890625 139.105469 C 624.730469 138.738281 626.582031 138.464844 628.445312 138.28125 C 630.308594 138.097656 632.179688 138.003906 634.054688 138.003906 C 635.925781 138.003906 637.796875 138.097656 639.660156 138.28125 C 641.527344 138.464844 643.378906 138.738281 645.214844 139.105469 C 647.050781 139.46875 648.867188 139.925781 650.660156 140.46875 C 652.453125 141.011719 654.214844 141.644531 655.949219 142.359375 C 657.679688 143.078125 659.371094 143.875 661.023438 144.761719 C 662.675781 145.644531 664.28125 146.605469 665.839844 147.648438 C 667.398438 148.6875 668.898438 149.800781 670.347656 150.992188 C 671.796875 152.179688 673.183594 153.4375 674.507812 154.761719 C 675.832031 156.085938 677.089844 157.472656 678.277344 158.921875 C 679.46875 160.371094 680.582031 161.875 681.625 163.429688 C 682.664062 164.988281 683.625 166.59375 684.511719 168.246094 C 685.394531 169.898438 686.195312 171.589844 686.910156 173.324219 C 687.628906 175.054688 688.257812 176.816406 688.800781 178.609375 C 689.347656 180.402344 689.800781 182.21875 690.167969 184.054688 C 690.53125 185.894531 690.804688 187.746094 690.988281 189.609375 C 691.171875 191.472656 691.265625 193.34375 691.265625 195.21875 L 691.265625 614.773438 C 691.265625 616.648438 691.171875 618.519531 690.988281 620.382812 C 690.804688 622.246094 690.53125 624.097656 690.167969 625.9375 C 689.800781 627.773438 689.347656 629.589844 688.800781 631.382812 C 688.257812 633.175781 687.628906 634.9375 686.910156 636.667969 C 686.195312 638.398438 685.394531 640.09375 684.511719 641.746094 C 683.625 643.398438 682.664062 645.003906 681.625 646.558594 C 680.582031 648.117188 679.46875 649.621094 678.277344 651.070312 C 677.089844 652.519531 675.832031 653.90625 674.507812 655.230469 C 673.183594 656.554688 671.796875 657.8125 670.347656 659 C 668.898438 660.1875 667.398438 661.304688 665.839844 662.34375 C 664.28125 663.386719 662.675781 664.347656 661.023438 665.230469 C 659.371094 666.113281 657.679688 666.914062 655.949219 667.632812 C 654.214844 668.347656 652.453125 668.980469 650.660156 669.523438 C 648.867188 670.066406 647.050781 670.523438 645.214844 670.886719 C 643.378906 671.253906 641.527344 671.527344 639.660156 671.710938 C 637.796875 671.894531 635.925781 671.988281 634.054688 671.988281 C 632.179688 671.988281 630.308594 671.894531 628.445312 671.710938 C 626.582031 671.527344 624.730469 671.253906 622.890625 670.886719 C 621.054688 670.523438 619.238281 670.066406 617.445312 669.523438 C 615.652344 668.980469 613.890625 668.347656 612.160156 667.632812 C 610.429688 666.914062 608.734375 666.113281 607.082031 665.230469 C 605.429688 664.347656 603.824219 663.386719 602.269531 662.34375 C 600.710938 661.304688 599.207031 660.1875 597.757812 659 C 596.308594 657.8125 594.921875 656.554688 593.597656 655.230469 C 592.273438 653.90625 591.015625 652.519531 589.828125 651.070312 C 588.636719 649.621094 587.523438 648.117188 586.484375 646.558594 C 585.441406 645.003906 584.480469 643.398438 583.597656 641.746094 C 582.714844 640.09375 581.914062 638.398438 581.195312 636.667969 C 580.480469 634.9375 579.847656 633.175781 579.304688 631.382812 C 578.761719 629.589844 578.304688 627.773438 577.941406 625.9375 C 577.574219 624.097656 577.300781 622.246094 577.117188 620.382812 C 576.933594 618.519531 576.839844 616.648438 576.839844 614.773438 Z M 538.699219 222.832031 C 459.859375 259.066406 365.574219 279.320312 271.707031 285.992188 L 271.707031 523.882812 C 285.5625 524.660156 299.398438 525.742188 313.207031 527.125 C 391.511719 534.90625 467.222656 552.605469 538.699219 586.625 Z M 233.566406 521.898438 L 233.566406 288.054688 C 207.628906 289.082031 180.207031 289.695312 156.976562 290.074219 C 155.730469 290.09375 154.484375 290.140625 153.242188 290.21875 C 151.996094 290.296875 150.753906 290.402344 149.515625 290.542969 C 148.273438 290.679688 147.039062 290.847656 145.808594 291.046875 C 144.578125 291.242188 143.351562 291.472656 142.132812 291.730469 C 140.910156 291.988281 139.699219 292.273438 138.492188 292.589844 C 137.285156 292.90625 136.085938 293.253906 134.898438 293.628906 C 133.707031 294 132.527344 294.40625 131.359375 294.835938 C 130.1875 295.269531 129.03125 295.730469 127.882812 296.21875 C 126.734375 296.707031 125.601562 297.222656 124.476562 297.765625 C 123.355469 298.308594 122.246094 298.878906 121.152344 299.476562 C 120.058594 300.074219 118.976562 300.695312 117.914062 301.34375 C 116.847656 301.996094 115.800781 302.671875 114.769531 303.371094 C 113.738281 304.070312 112.722656 304.796875 111.726562 305.546875 C 110.730469 306.296875 109.75 307.070312 108.792969 307.867188 C 107.832031 308.664062 106.894531 309.484375 105.976562 310.328125 C 105.054688 311.167969 104.15625 312.035156 103.28125 312.921875 C 102.402344 313.808594 101.546875 314.714844 100.714844 315.640625 C 99.882812 316.570312 99.070312 317.519531 98.285156 318.484375 C 97.496094 319.453125 96.734375 320.4375 95.996094 321.441406 C 95.257812 322.445312 94.542969 323.46875 93.851562 324.507812 C 93.164062 325.546875 92.5 326.601562 91.859375 327.671875 C 91.222656 328.746094 90.609375 329.832031 90.023438 330.929688 C 89.4375 332.03125 88.878906 333.148438 88.347656 334.273438 C 87.816406 335.402344 87.3125 336.542969 86.835938 337.695312 C 86.359375 338.847656 85.914062 340.011719 85.492188 341.1875 C 85.074219 342.359375 84.683594 343.542969 84.320312 344.738281 C 83.957031 345.929688 83.625 347.132812 83.320312 348.34375 C 83.015625 349.550781 82.742188 350.769531 82.5 351.992188 C 82.253906 353.214844 82.039062 354.441406 81.851562 355.675781 C 81.667969 356.910156 81.511719 358.144531 81.386719 359.386719 C 81.261719 360.628906 81.167969 361.871094 81.101562 363.117188 C 81.039062 364.359375 81.003906 365.605469 81 366.855469 L 81 443.136719 C 81 485.320312 115.175781 519.269531 157.054688 519.765625 L 175.972656 520.070312 C 195.179688 520.453125 214.375 521.0625 233.566406 521.898438 M 286.582031 563.132812 C 297.464844 563.945312 308.273438 564.9375 319.003906 566.105469 L 328.652344 630.566406 C 328.785156 631.253906 328.894531 631.941406 328.988281 632.636719 C 329.082031 633.328125 329.15625 634.023438 329.210938 634.71875 C 329.265625 635.417969 329.300781 636.117188 329.316406 636.816406 C 329.332031 637.515625 329.328125 638.214844 329.308594 638.910156 C 329.285156 639.609375 329.242188 640.308594 329.183594 641.003906 C 329.121094 641.703125 329.042969 642.394531 328.945312 643.089844 C 328.84375 643.78125 328.726562 644.46875 328.589844 645.15625 C 328.453125 645.839844 328.296875 646.523438 328.125 647.199219 C 327.949219 647.878906 327.757812 648.550781 327.546875 649.214844 C 327.335938 649.882812 327.105469 650.542969 326.859375 651.195312 C 326.609375 651.851562 326.34375 652.496094 326.0625 653.136719 C 325.777344 653.777344 325.476562 654.40625 325.160156 655.03125 C 324.84375 655.652344 324.507812 656.265625 324.15625 656.871094 C 323.804688 657.476562 323.4375 658.070312 323.054688 658.652344 C 322.667969 659.238281 322.269531 659.8125 321.851562 660.375 C 321.4375 660.9375 321.007812 661.488281 320.5625 662.023438 C 320.113281 662.5625 319.652344 663.089844 319.179688 663.601562 C 318.703125 664.117188 318.214844 664.617188 317.714844 665.101562 C 317.210938 665.589844 316.695312 666.0625 316.167969 666.519531 C 315.640625 666.976562 315.097656 667.421875 314.546875 667.847656 C 313.992188 668.277344 313.429688 668.6875 312.851562 669.085938 C 312.277344 669.484375 311.691406 669.863281 311.09375 670.230469 C 310.5 670.59375 309.894531 670.945312 309.277344 671.273438 C 308.660156 671.605469 308.039062 671.921875 307.40625 672.21875 C 306.773438 672.515625 306.132812 672.796875 305.484375 673.058594 C 304.835938 673.320312 304.179688 673.5625 303.519531 673.789062 C 302.855469 674.015625 302.1875 674.222656 301.515625 674.414062 C 300.84375 674.601562 300.164062 674.773438 299.480469 674.925781 C 298.800781 675.078125 298.113281 675.210938 297.421875 675.324219 C 296.734375 675.441406 296.042969 675.535156 295.347656 675.613281 C 294.652344 675.6875 293.953125 675.746094 293.257812 675.78125 C 292.558594 675.820312 291.859375 675.839844 291.160156 675.839844 L 270.257812 675.839844 C 268.414062 675.839844 266.582031 675.707031 264.757812 675.441406 C 262.933594 675.175781 261.136719 674.777344 259.371094 674.25 C 257.601562 673.722656 255.882812 673.074219 254.210938 672.296875 C 252.539062 671.523438 250.929688 670.628906 249.386719 669.621094 C 247.84375 668.609375 246.382812 667.496094 245 666.273438 C 243.617188 665.054688 242.332031 663.738281 241.140625 662.332031 C 239.949219 660.925781 238.867188 659.4375 237.894531 657.875 C 236.917969 656.308594 236.058594 654.679688 235.320312 652.992188 L 185.203125 558.402344 C 206.726562 558.9375 228.238281 559.753906 249.738281 560.84375 C 262.222656 561.503906 274.503906 562.265625 286.582031 563.132812 " fill-opacity="1" fill-rule="nonzero"/></g></svg>