<svg xmlns="http://www.w3.org/2000/svg" xmlns:xlink="http://www.w3.org/1999/xlink" width="1080" zoomAndPan="magnify" viewBox="0 0 810 809.999993" height="1080" preserveAspectRatio="xMidYMid meet" version="1.0"><path fill="#ff3131" d="M 320.625 708.75 L 320.625 607.5 L 202.5 489.375 L 202.5 303.75 C 202.5 290.25 205.59375 277.59375 211.78125 265.78125 C 217.96875 253.96875 226.96875 244.96875 238.78125 238.78125 L 238.78125 333.28125 L 47.25 141.75 L 94.5 94.5 L 715.5 715.5 L 668.25 762.75 L 501.1875 595.6875 L 489.375 607.5 L 489.375 708.75 Z M 578.8125 482.625 L 270 173.8125 L 270 101.25 L 337.5 101.25 L 337.5 236.25 L 472.5 236.25 L 472.5 101.25 L 540 101.25 L 540 270 L 506.25 236.25 L 540 236.25 C 558.5625 236.25 574.453125 242.859375 587.671875 256.078125 C 600.890625 269.296875 607.5 285.1875 607.5 303.75 L 607.5 453.9375 Z M 578.8125 482.625 " fill-opacity="1" fill-rule="nonzero"/></svg>