<svg xmlns="http://www.w3.org/2000/svg" xmlns:xlink="http://www.w3.org/1999/xlink" width="1080" zoomAndPan="magnify" viewBox="0 0 810 809.999993" height="1080" preserveAspectRatio="xMidYMid meet" version="1.0"><path fill="#ffde59" d="M 607.5 438.75 L 607.5 135 L 675 135 L 675 438.75 Z M 135 675 L 135 135 L 202.5 135 L 202.5 675 Z M 371.25 270 L 371.25 135 L 438.75 135 L 438.75 270 Z M 371.25 472.5 L 371.25 337.5 L 438.75 337.5 L 438.75 472.5 Z M 371.25 675 L 371.25 540 L 438.75 540 L 438.75 675 Z M 520.59375 694.40625 L 592.3125 622.6875 L 520.59375 551.8125 L 568.6875 503.71875 L 640.40625 575.4375 L 712.125 503.71875 L 759.375 551.8125 L 687.65625 623.53125 L 758.53125 695.25 L 712.125 742.5 L 639.5625 670.78125 L 567.84375 742.5 Z M 520.59375 694.40625 " fill-opacity="1" fill-rule="nonzero"/></svg>