<svg xmlns="http://www.w3.org/2000/svg" xmlns:xlink="http://www.w3.org/1999/xlink" width="500" zoomAndPan="magnify" viewBox="0 0 375 374.999991" height="500" preserveAspectRatio="xMidYMid meet" version="1.0"><path fill="#ff3131" d="M 210.515625 36.703125 C 209.9375 35.695312 209.296875 34.734375 208.59375 33.8125 C 207.890625 32.890625 207.128906 32.019531 206.308594 31.195312 C 205.488281 30.375 204.621094 29.609375 203.703125 28.902344 C 202.78125 28.195312 201.820312 27.550781 200.816406 26.96875 C 199.8125 26.386719 198.777344 25.875 197.703125 25.429688 C 196.632812 24.984375 195.539062 24.613281 194.417969 24.3125 C 193.296875 24.011719 192.160156 23.785156 191.011719 23.632812 C 189.863281 23.480469 188.707031 23.402344 187.546875 23.402344 C 186.386719 23.402344 185.230469 23.480469 184.082031 23.632812 C 182.933594 23.785156 181.796875 24.011719 180.675781 24.3125 C 179.554688 24.613281 178.460938 24.984375 177.390625 25.429688 C 176.316406 25.875 175.28125 26.386719 174.277344 26.96875 C 173.273438 27.550781 172.3125 28.195312 171.390625 28.902344 C 170.472656 29.609375 169.605469 30.375 168.785156 31.195312 C 167.964844 32.019531 167.203125 32.890625 166.5 33.8125 C 165.796875 34.734375 165.15625 35.695312 164.578125 36.703125 L 3.867188 310.148438 C -6.84375 328.382812 6 351.5625 26.835938 351.5625 L 348.234375 351.5625 C 369.070312 351.5625 381.9375 328.359375 371.203125 310.148438 Z M 187.5 117.1875 C 200.039062 117.1875 209.859375 128.015625 208.59375 140.507812 L 200.390625 222.703125 C 200.324219 223.503906 200.179688 224.289062 199.964844 225.0625 C 199.75 225.839844 199.464844 226.585938 199.113281 227.304688 C 198.757812 228.027344 198.339844 228.710938 197.859375 229.351562 C 197.378906 229.996094 196.84375 230.589844 196.25 231.132812 C 195.660156 231.675781 195.023438 232.160156 194.339844 232.582031 C 193.660156 233.007812 192.945312 233.367188 192.195312 233.65625 C 191.445312 233.949219 190.679688 234.167969 189.890625 234.316406 C 189.097656 234.464844 188.304688 234.539062 187.5 234.539062 C 186.695312 234.539062 185.902344 234.464844 185.109375 234.316406 C 184.320312 234.167969 183.554688 233.949219 182.804688 233.65625 C 182.054688 233.367188 181.339844 233.007812 180.660156 232.582031 C 179.976562 232.160156 179.339844 231.675781 178.75 231.132812 C 178.15625 230.589844 177.621094 229.996094 177.140625 229.351562 C 176.660156 228.710938 176.242188 228.027344 175.886719 227.304688 C 175.535156 226.585938 175.25 225.839844 175.035156 225.0625 C 174.820312 224.289062 174.675781 223.503906 174.609375 222.703125 L 166.40625 140.507812 C 166.332031 139.773438 166.296875 139.035156 166.300781 138.296875 C 166.304688 137.558594 166.347656 136.824219 166.425781 136.089844 C 166.507812 135.355469 166.625 134.625 166.78125 133.90625 C 166.9375 133.183594 167.132812 132.472656 167.363281 131.769531 C 167.59375 131.066406 167.859375 130.378906 168.164062 129.707031 C 168.464844 129.03125 168.804688 128.375 169.175781 127.738281 C 169.546875 127.101562 169.949219 126.480469 170.386719 125.886719 C 170.820312 125.289062 171.285156 124.71875 171.78125 124.167969 C 172.277344 123.621094 172.800781 123.101562 173.347656 122.609375 C 173.898438 122.117188 174.472656 121.652344 175.070312 121.21875 C 175.667969 120.785156 176.289062 120.386719 176.929688 120.015625 C 177.570312 119.648438 178.226562 119.3125 178.902344 119.015625 C 179.578125 118.714844 180.265625 118.449219 180.96875 118.222656 C 181.671875 117.996094 182.382812 117.804688 183.105469 117.648438 C 183.828125 117.496094 184.554688 117.382812 185.289062 117.304688 C 186.023438 117.226562 186.761719 117.1875 187.5 117.1875 M 187.546875 257.8125 C 188.316406 257.8125 189.082031 257.851562 189.84375 257.925781 C 190.609375 258 191.367188 258.113281 192.121094 258.261719 C 192.871094 258.414062 193.617188 258.597656 194.351562 258.820312 C 195.085938 259.042969 195.808594 259.304688 196.515625 259.597656 C 197.226562 259.890625 197.917969 260.21875 198.59375 260.578125 C 199.273438 260.941406 199.929688 261.335938 200.566406 261.761719 C 201.207031 262.1875 201.820312 262.644531 202.414062 263.132812 C 203.007812 263.621094 203.578125 264.132812 204.121094 264.675781 C 204.664062 265.21875 205.175781 265.789062 205.664062 266.382812 C 206.152344 266.976562 206.609375 267.589844 207.035156 268.230469 C 207.460938 268.867188 207.855469 269.523438 208.21875 270.203125 C 208.578125 270.878906 208.90625 271.570312 209.199219 272.28125 C 209.492188 272.988281 209.753906 273.710938 209.976562 274.445312 C 210.199219 275.179688 210.382812 275.925781 210.535156 276.675781 C 210.683594 277.429688 210.796875 278.1875 210.871094 278.953125 C 210.945312 279.714844 210.984375 280.480469 210.984375 281.25 C 210.984375 282.019531 210.945312 282.785156 210.871094 283.546875 C 210.796875 284.3125 210.683594 285.070312 210.535156 285.824219 C 210.382812 286.574219 210.199219 287.320312 209.976562 288.054688 C 209.753906 288.789062 209.492188 289.511719 209.199219 290.21875 C 208.90625 290.929688 208.578125 291.621094 208.21875 292.296875 C 207.855469 292.976562 207.460938 293.632812 207.035156 294.269531 C 206.609375 294.910156 206.152344 295.523438 205.664062 296.117188 C 205.175781 296.710938 204.664062 297.28125 204.121094 297.824219 C 203.578125 298.367188 203.007812 298.878906 202.414062 299.367188 C 201.820312 299.855469 201.207031 300.3125 200.566406 300.738281 C 199.929688 301.164062 199.273438 301.558594 198.59375 301.921875 C 197.917969 302.28125 197.226562 302.609375 196.515625 302.902344 C 195.808594 303.195312 195.085938 303.457031 194.351562 303.679688 C 193.617188 303.902344 192.871094 304.085938 192.121094 304.238281 C 191.367188 304.386719 190.609375 304.5 189.84375 304.574219 C 189.082031 304.648438 188.316406 304.6875 187.546875 304.6875 C 186.777344 304.6875 186.011719 304.648438 185.25 304.574219 C 184.484375 304.5 183.726562 304.386719 182.972656 304.238281 C 182.222656 304.085938 181.476562 303.902344 180.742188 303.679688 C 180.007812 303.457031 179.285156 303.195312 178.578125 302.902344 C 177.867188 302.609375 177.175781 302.28125 176.5 301.921875 C 175.820312 301.558594 175.164062 301.164062 174.527344 300.738281 C 173.886719 300.3125 173.273438 299.855469 172.679688 299.367188 C 172.085938 298.878906 171.515625 298.367188 170.972656 297.824219 C 170.429688 297.28125 169.917969 296.710938 169.429688 296.117188 C 168.941406 295.523438 168.484375 294.910156 168.058594 294.269531 C 167.632812 293.632812 167.238281 292.976562 166.875 292.296875 C 166.515625 291.621094 166.1875 290.929688 165.894531 290.21875 C 165.601562 289.511719 165.339844 288.789062 165.117188 288.054688 C 164.894531 287.320312 164.710938 286.574219 164.558594 285.824219 C 164.410156 285.070312 164.296875 284.3125 164.222656 283.546875 C 164.148438 282.785156 164.109375 282.019531 164.109375 281.25 C 164.109375 280.480469 164.148438 279.714844 164.222656 278.953125 C 164.296875 278.1875 164.410156 277.429688 164.558594 276.675781 C 164.710938 275.925781 164.894531 275.179688 165.117188 274.445312 C 165.339844 273.710938 165.601562 272.988281 165.894531 272.28125 C 166.1875 271.570312 166.515625 270.878906 166.875 270.203125 C 167.238281 269.523438 167.632812 268.867188 168.058594 268.230469 C 168.484375 267.589844 168.941406 266.976562 169.429688 266.382812 C 169.917969 265.789062 170.429688 265.21875 170.972656 264.675781 C 171.515625 264.132812 172.085938 263.621094 172.679688 263.132812 C 173.273438 262.644531 173.886719 262.1875 174.527344 261.761719 C 175.164062 261.335938 175.820312 260.941406 176.5 260.578125 C 177.175781 260.21875 177.867188 259.890625 178.578125 259.597656 C 179.285156 259.304688 180.007812 259.042969 180.742188 258.820312 C 181.476562 258.597656 182.222656 258.414062 182.972656 258.261719 C 183.726562 258.113281 184.484375 258 185.25 257.925781 C 186.011719 257.851562 186.777344 257.8125 187.546875 257.8125 " fill-opacity="1" fill-rule="nonzero"/></svg>