<svg xmlns="http://www.w3.org/2000/svg" xmlns:xlink="http://www.w3.org/1999/xlink" width="500" zoomAndPan="magnify" viewBox="0 0 375 374.999991" height="500" preserveAspectRatio="xMidYMid meet" version="1.0"><path fill="#6689a8" d="M 187.5 375 C 190.570312 375 193.636719 374.925781 196.699219 374.773438 C 199.765625 374.625 202.824219 374.398438 205.878906 374.097656 C 208.933594 373.796875 211.976562 373.421875 215.011719 372.96875 C 218.046875 372.519531 221.070312 371.996094 224.078125 371.398438 C 227.089844 370.796875 230.082031 370.125 233.058594 369.378906 C 236.035156 368.636719 238.992188 367.816406 241.929688 366.925781 C 244.863281 366.035156 247.777344 365.074219 250.667969 364.039062 C 253.554688 363.003906 256.417969 361.902344 259.253906 360.726562 C 262.089844 359.554688 264.894531 358.308594 267.667969 356.996094 C 270.441406 355.6875 273.179688 354.308594 275.886719 352.859375 C 278.59375 351.414062 281.261719 349.902344 283.894531 348.324219 C 286.527344 346.746094 289.117188 345.105469 291.667969 343.402344 C 294.222656 341.695312 296.730469 339.929688 299.195312 338.101562 C 301.660156 336.273438 304.078125 334.386719 306.449219 332.4375 C 308.820312 330.492188 311.144531 328.488281 313.417969 326.429688 C 315.691406 324.367188 317.914062 322.253906 320.082031 320.082031 C 322.253906 317.914062 324.367188 315.691406 326.429688 313.417969 C 328.488281 311.144531 330.492188 308.820312 332.4375 306.449219 C 334.386719 304.078125 336.273438 301.660156 338.101562 299.195312 C 339.929688 296.730469 341.695312 294.222656 343.402344 291.667969 C 345.105469 289.117188 346.746094 286.527344 348.324219 283.894531 C 349.902344 281.261719 351.414062 278.59375 352.859375 275.886719 C 354.308594 273.179688 355.6875 270.441406 356.996094 267.667969 C 358.308594 264.890625 359.554688 262.089844 360.726562 259.253906 C 361.902344 256.417969 363.003906 253.554688 364.039062 250.667969 C 365.074219 247.777344 366.035156 244.863281 366.925781 241.929688 C 367.816406 238.992188 368.636719 236.035156 369.378906 233.058594 C 370.125 230.082031 370.796875 227.089844 371.398438 224.078125 C 371.996094 221.070312 372.519531 218.046875 372.96875 215.011719 C 373.421875 211.976562 373.796875 208.933594 374.097656 205.878906 C 374.398438 202.824219 374.625 199.765625 374.773438 196.699219 C 374.925781 193.636719 375 190.570312 375 187.5 C 375 184.429688 374.925781 181.363281 374.773438 178.300781 C 374.625 175.234375 374.398438 172.175781 374.097656 169.121094 C 373.796875 166.066406 373.421875 163.023438 372.96875 159.988281 C 372.519531 156.953125 371.996094 153.929688 371.398438 150.921875 C 370.796875 147.910156 370.125 144.917969 369.378906 141.941406 C 368.636719 138.964844 367.816406 136.007812 366.925781 133.070312 C 366.035156 130.136719 365.074219 127.222656 364.039062 124.332031 C 363.003906 121.445312 361.902344 118.582031 360.726562 115.746094 C 359.554688 112.910156 358.308594 110.105469 356.996094 107.332031 C 355.6875 104.558594 354.308594 101.820312 352.859375 99.113281 C 351.414062 96.40625 349.902344 93.738281 348.324219 91.105469 C 346.746094 88.472656 345.105469 85.882812 343.402344 83.332031 C 341.695312 80.777344 339.929688 78.269531 338.101562 75.804688 C 336.273438 73.339844 334.386719 70.921875 332.4375 68.550781 C 330.492188 66.179688 328.488281 63.855469 326.429688 61.582031 C 324.367188 59.308594 322.253906 57.085938 320.082031 54.917969 C 317.914062 52.746094 315.691406 50.632812 313.417969 48.570312 C 311.144531 46.511719 308.820312 44.507812 306.449219 42.558594 C 304.078125 40.613281 301.660156 38.726562 299.195312 36.898438 C 296.730469 35.070312 294.222656 33.304688 291.667969 31.597656 C 289.117188 29.894531 286.527344 28.253906 283.894531 26.675781 C 281.261719 25.097656 278.59375 23.585938 275.886719 22.140625 C 273.179688 20.691406 270.441406 19.3125 267.667969 18.003906 C 264.894531 16.691406 262.089844 15.445312 259.253906 14.273438 C 256.417969 13.097656 253.554688 11.996094 250.667969 10.960938 C 247.777344 9.925781 244.863281 8.964844 241.929688 8.074219 C 238.992188 7.183594 236.035156 6.363281 233.058594 5.617188 C 230.082031 4.875 227.089844 4.203125 224.078125 3.601562 C 221.070312 3.003906 218.046875 2.480469 215.011719 2.03125 C 211.976562 1.578125 208.933594 1.203125 205.878906 0.902344 C 202.824219 0.601562 199.765625 0.375 196.699219 0.226562 C 193.636719 0.0742188 190.570312 0 187.5 0 C 184.429688 0 181.363281 0.0742188 178.300781 0.226562 C 175.234375 0.375 172.175781 0.601562 169.121094 0.902344 C 166.066406 1.203125 163.023438 1.578125 159.988281 2.03125 C 156.953125 2.480469 153.929688 3.003906 150.921875 3.601562 C 147.910156 4.203125 144.917969 4.875 141.941406 5.617188 C 138.964844 6.363281 136.007812 7.183594 133.070312 8.074219 C 130.136719 8.964844 127.222656 9.925781 124.332031 10.960938 C 121.445312 11.996094 118.582031 13.097656 115.746094 14.273438 C 112.910156 15.445312 110.105469 16.691406 107.332031 18.003906 C 104.558594 19.3125 101.820312 20.691406 99.113281 22.140625 C 96.40625 23.585938 93.738281 25.097656 91.105469 26.675781 C 88.472656 28.253906 85.882812 29.894531 83.332031 31.597656 C 80.777344 33.304688 78.269531 35.070312 75.804688 36.898438 C 73.339844 38.726562 70.921875 40.613281 68.550781 42.558594 C 66.179688 44.507812 63.855469 46.511719 61.582031 48.570312 C 59.308594 50.632812 57.085938 52.746094 54.917969 54.917969 C 52.746094 57.085938 50.632812 59.308594 48.570312 61.582031 C 46.511719 63.855469 44.507812 66.179688 42.558594 68.550781 C 40.613281 70.921875 38.726562 73.339844 36.898438 75.804688 C 35.070312 78.269531 33.304688 80.777344 31.597656 83.332031 C 29.894531 85.882812 28.253906 88.472656 26.675781 91.105469 C 25.097656 93.738281 23.585938 96.40625 22.140625 99.113281 C 20.691406 101.820312 19.3125 104.558594 18.003906 107.332031 C 16.691406 110.105469 15.445312 112.910156 14.273438 115.746094 C 13.097656 118.582031 11.996094 121.445312 10.960938 124.332031 C 9.925781 127.222656 8.964844 130.136719 8.074219 133.070312 C 7.183594 136.007812 6.363281 138.964844 5.621094 141.941406 C 4.875 144.917969 4.203125 147.910156 3.601562 150.921875 C 3.003906 153.929688 2.480469 156.953125 2.03125 159.988281 C 1.578125 163.023438 1.203125 166.066406 0.902344 169.121094 C 0.601562 172.175781 0.375 175.234375 0.226562 178.300781 C 0.0742188 181.363281 0 184.429688 0 187.5 C 0 190.570312 0.0742188 193.636719 0.226562 196.699219 C 0.375 199.765625 0.601562 202.824219 0.902344 205.878906 C 1.203125 208.933594 1.578125 211.976562 2.03125 215.011719 C 2.480469 218.046875 3.003906 221.070312 3.601562 224.078125 C 4.203125 227.089844 4.875 230.082031 5.621094 233.058594 C 6.363281 236.035156 7.183594 238.992188 8.074219 241.929688 C 8.964844 244.863281 9.925781 247.777344 10.960938 250.667969 C 11.996094 253.554688 13.097656 256.417969 14.273438 259.253906 C 15.445312 262.089844 16.691406 264.894531 18.003906 267.667969 C 19.3125 270.441406 20.691406 273.179688 22.140625 275.886719 C 23.585938 278.59375 25.097656 281.261719 26.675781 283.894531 C 28.253906 286.527344 29.894531 289.117188 31.597656 291.667969 C 33.304688 294.222656 35.070312 296.730469 36.898438 299.195312 C 38.726562 301.660156 40.613281 304.078125 42.558594 306.449219 C 44.507812 308.820312 46.511719 311.144531 48.570312 313.417969 C 50.632812 315.691406 52.746094 317.914062 54.917969 320.082031 C 57.085938 322.253906 59.308594 324.367188 61.582031 326.429688 C 63.855469 328.488281 66.179688 330.492188 68.550781 332.4375 C 70.921875 334.386719 73.339844 336.273438 75.804688 338.101562 C 78.269531 339.929688 80.777344 341.695312 83.332031 343.402344 C 85.882812 345.105469 88.472656 346.746094 91.105469 348.324219 C 93.738281 349.902344 96.40625 351.414062 99.113281 352.859375 C 101.820312 354.308594 104.558594 355.6875 107.332031 356.996094 C 110.105469 358.308594 112.910156 359.554688 115.746094 360.726562 C 118.582031 361.902344 121.445312 363.003906 124.332031 364.039062 C 127.222656 365.074219 130.136719 366.035156 133.070312 366.925781 C 136.007812 367.816406 138.964844 368.636719 141.941406 369.378906 C 144.917969 370.125 147.910156 370.796875 150.921875 371.398438 C 153.929688 371.996094 156.953125 372.519531 159.988281 372.96875 C 163.023438 373.421875 166.066406 373.796875 169.121094 374.097656 C 172.175781 374.398438 175.234375 374.625 178.300781 374.773438 C 181.363281 374.925781 184.429688 375 187.5 375 M 209.296875 154.40625 L 185.859375 264.679688 C 184.21875 272.648438 186.539062 277.171875 192.984375 277.171875 C 197.53125 277.171875 204.398438 275.53125 209.0625 271.40625 L 207 281.15625 C 200.273438 289.265625 185.4375 295.171875 172.664062 295.171875 C 156.1875 295.171875 149.179688 285.28125 153.726562 264.257812 L 171.023438 182.976562 C 172.523438 176.109375 171.164062 173.625 164.296875 171.960938 L 153.726562 170.0625 L 155.648438 161.132812 L 209.320312 154.40625 Z M 187.5 128.90625 C 186.730469 128.90625 185.964844 128.867188 185.203125 128.792969 C 184.4375 128.71875 183.679688 128.605469 182.925781 128.457031 C 182.175781 128.304688 181.429688 128.121094 180.695312 127.898438 C 179.960938 127.675781 179.238281 127.414062 178.53125 127.121094 C 177.820312 126.828125 177.128906 126.5 176.453125 126.140625 C 175.773438 125.777344 175.117188 125.382812 174.480469 124.957031 C 173.839844 124.53125 173.226562 124.074219 172.632812 123.585938 C 172.039062 123.097656 171.46875 122.585938 170.925781 122.042969 C 170.382812 121.5 169.871094 120.929688 169.382812 120.335938 C 168.894531 119.742188 168.4375 119.128906 168.011719 118.488281 C 167.585938 117.851562 167.191406 117.195312 166.828125 116.515625 C 166.46875 115.839844 166.140625 115.148438 165.847656 114.4375 C 165.554688 113.730469 165.292969 113.007812 165.070312 112.273438 C 164.847656 111.539062 164.664062 110.792969 164.511719 110.042969 C 164.363281 109.289062 164.25 108.53125 164.175781 107.765625 C 164.101562 107.003906 164.0625 106.238281 164.0625 105.46875 C 164.0625 104.699219 164.101562 103.933594 164.175781 103.171875 C 164.25 102.40625 164.363281 101.648438 164.511719 100.894531 C 164.664062 100.144531 164.847656 99.398438 165.070312 98.664062 C 165.292969 97.929688 165.554688 97.207031 165.847656 96.5 C 166.140625 95.789062 166.46875 95.097656 166.828125 94.421875 C 167.191406 93.742188 167.585938 93.085938 168.011719 92.449219 C 168.4375 91.808594 168.894531 91.195312 169.382812 90.601562 C 169.871094 90.007812 170.382812 89.4375 170.925781 88.894531 C 171.46875 88.351562 172.039062 87.839844 172.632812 87.351562 C 173.226562 86.863281 173.839844 86.40625 174.480469 85.980469 C 175.117188 85.554688 175.773438 85.160156 176.453125 84.796875 C 177.128906 84.4375 177.820312 84.109375 178.53125 83.816406 C 179.238281 83.523438 179.960938 83.261719 180.695312 83.039062 C 181.429688 82.816406 182.175781 82.632812 182.925781 82.480469 C 183.679688 82.332031 184.4375 82.21875 185.203125 82.144531 C 185.964844 82.070312 186.730469 82.03125 187.5 82.03125 C 188.269531 82.03125 189.035156 82.070312 189.796875 82.144531 C 190.5625 82.21875 191.320312 82.332031 192.074219 82.480469 C 192.824219 82.632812 193.570312 82.816406 194.304688 83.039062 C 195.039062 83.261719 195.761719 83.523438 196.46875 83.816406 C 197.179688 84.109375 197.871094 84.4375 198.546875 84.796875 C 199.226562 85.160156 199.882812 85.554688 200.519531 85.980469 C 201.160156 86.40625 201.773438 86.863281 202.367188 87.351562 C 202.960938 87.839844 203.53125 88.351562 204.074219 88.894531 C 204.617188 89.4375 205.128906 90.007812 205.617188 90.601562 C 206.105469 91.195312 206.5625 91.808594 206.988281 92.449219 C 207.414062 93.085938 207.808594 93.742188 208.171875 94.421875 C 208.53125 95.097656 208.859375 95.789062 209.152344 96.5 C 209.445312 97.207031 209.707031 97.929688 209.929688 98.664062 C 210.152344 99.398438 210.335938 100.144531 210.488281 100.894531 C 210.636719 101.648438 210.75 102.40625 210.824219 103.171875 C 210.898438 103.933594 210.9375 104.699219 210.9375 105.46875 C 210.9375 106.238281 210.898438 107.003906 210.824219 107.765625 C 210.75 108.53125 210.636719 109.289062 210.488281 110.042969 C 210.335938 110.792969 210.152344 111.539062 209.929688 112.273438 C 209.707031 113.007812 209.445312 113.730469 209.152344 114.4375 C 208.859375 115.148438 208.53125 115.839844 208.171875 116.515625 C 207.808594 117.195312 207.414062 117.851562 206.988281 118.488281 C 206.5625 119.128906 206.105469 119.742188 205.617188 120.335938 C 205.128906 120.929688 204.617188 121.5 204.074219 122.042969 C 203.53125 122.585938 202.960938 123.097656 202.367188 123.585938 C 201.773438 124.074219 201.160156 124.53125 200.519531 124.957031 C 199.882812 125.382812 199.226562 125.777344 198.546875 126.140625 C 197.871094 126.5 197.179688 126.828125 196.46875 127.121094 C 195.761719 127.414062 195.039062 127.675781 194.304688 127.898438 C 193.570312 128.121094 192.824219 128.304688 192.074219 128.457031 C 191.320312 128.605469 190.5625 128.71875 189.796875 128.792969 C 189.035156 128.867188 188.269531 128.90625 187.5 128.90625 " fill-opacity="1" fill-rule="nonzero"/></svg>