<svg xmlns="http://www.w3.org/2000/svg" xmlns:xlink="http://www.w3.org/1999/xlink" width="500" zoomAndPan="magnify" viewBox="0 0 375 374.999991" height="500" preserveAspectRatio="xMidYMid meet" version="1.0"><path fill="#ffde59" d="M 375 187.5 C 375 190.570312 374.925781 193.636719 374.773438 196.699219 C 374.625 199.765625 374.398438 202.824219 374.097656 205.878906 C 373.796875 208.933594 373.421875 211.976562 372.96875 215.011719 C 372.519531 218.046875 371.996094 221.070312 371.398438 224.078125 C 370.796875 227.089844 370.125 230.082031 369.378906 233.058594 C 368.636719 236.035156 367.816406 238.992188 366.925781 241.929688 C 366.035156 244.863281 365.074219 247.777344 364.039062 250.667969 C 363.003906 253.554688 361.902344 256.417969 360.726562 259.253906 C 359.554688 262.089844 358.308594 264.894531 356.996094 267.667969 C 355.6875 270.441406 354.308594 273.179688 352.859375 275.886719 C 351.414062 278.59375 349.902344 281.261719 348.324219 283.894531 C 346.746094 286.527344 345.105469 289.117188 343.402344 291.667969 C 341.695312 294.222656 339.929688 296.730469 338.101562 299.195312 C 336.273438 301.660156 334.386719 304.078125 332.4375 306.449219 C 330.492188 308.820312 328.488281 311.144531 326.429688 313.417969 C 324.367188 315.691406 322.253906 317.914062 320.082031 320.082031 C 317.914062 322.253906 315.691406 324.367188 313.417969 326.429688 C 311.144531 328.488281 308.820312 330.492188 306.449219 332.4375 C 304.078125 334.386719 301.660156 336.273438 299.195312 338.101562 C 296.730469 339.929688 294.222656 341.695312 291.667969 343.402344 C 289.117188 345.105469 286.527344 346.746094 283.894531 348.324219 C 281.261719 349.902344 278.59375 351.414062 275.886719 352.859375 C 273.179688 354.308594 270.441406 355.6875 267.667969 356.996094 C 264.894531 358.308594 262.089844 359.554688 259.253906 360.726562 C 256.417969 361.902344 253.554688 363.003906 250.667969 364.039062 C 247.777344 365.074219 244.863281 366.035156 241.929688 366.925781 C 238.992188 367.816406 236.035156 368.636719 233.058594 369.378906 C 230.082031 370.125 227.089844 370.796875 224.078125 371.398438 C 221.070312 371.996094 218.046875 372.519531 215.011719 372.96875 C 211.976562 373.421875 208.933594 373.796875 205.878906 374.097656 C 202.824219 374.398438 199.765625 374.625 196.699219 374.773438 C 193.636719 374.925781 190.570312 375 187.5 375 C 184.429688 375 181.363281 374.925781 178.300781 374.773438 C 175.234375 374.625 172.175781 374.398438 169.121094 374.097656 C 166.066406 373.796875 163.023438 373.421875 159.988281 372.96875 C 156.953125 372.519531 153.929688 371.996094 150.921875 371.398438 C 147.910156 370.796875 144.917969 370.125 141.941406 369.378906 C 138.964844 368.636719 136.007812 367.816406 133.070312 366.925781 C 130.136719 366.035156 127.222656 365.074219 124.332031 364.039062 C 121.445312 363.003906 118.582031 361.902344 115.746094 360.726562 C 112.910156 359.554688 110.105469 358.308594 107.332031 356.996094 C 104.558594 355.6875 101.820312 354.308594 99.113281 352.859375 C 96.40625 351.414062 93.738281 349.902344 91.105469 348.324219 C 88.472656 346.746094 85.882812 345.105469 83.332031 343.402344 C 80.777344 341.695312 78.269531 339.929688 75.804688 338.101562 C 73.339844 336.273438 70.921875 334.386719 68.550781 332.4375 C 66.179688 330.492188 63.855469 328.488281 61.582031 326.429688 C 59.308594 324.367188 57.085938 322.253906 54.917969 320.082031 C 52.746094 317.914062 50.632812 315.691406 48.570312 313.417969 C 46.511719 311.144531 44.507812 308.820312 42.558594 306.449219 C 40.613281 304.078125 38.726562 301.660156 36.898438 299.195312 C 35.070312 296.730469 33.304688 294.222656 31.597656 291.667969 C 29.894531 289.117188 28.253906 286.527344 26.675781 283.894531 C 25.097656 281.261719 23.585938 278.59375 22.140625 275.886719 C 20.691406 273.179688 19.3125 270.441406 18.003906 267.667969 C 16.691406 264.890625 15.445312 262.089844 14.273438 259.253906 C 13.097656 256.417969 11.996094 253.554688 10.960938 250.667969 C 9.925781 247.777344 8.964844 244.863281 8.074219 241.929688 C 7.183594 238.992188 6.363281 236.035156 5.621094 233.058594 C 4.875 230.082031 4.203125 227.089844 3.601562 224.078125 C 3.003906 221.070312 2.480469 218.046875 2.03125 215.011719 C 1.578125 211.976562 1.203125 208.933594 0.902344 205.878906 C 0.601562 202.824219 0.375 199.765625 0.226562 196.699219 C 0.0742188 193.636719 0 190.570312 0 187.5 C 0 184.429688 0.0742188 181.363281 0.226562 178.300781 C 0.375 175.234375 0.601562 172.175781 0.902344 169.121094 C 1.203125 166.066406 1.578125 163.023438 2.03125 159.988281 C 2.480469 156.953125 3.003906 153.929688 3.601562 150.921875 C 4.203125 147.910156 4.875 144.917969 5.621094 141.941406 C 6.363281 138.964844 7.183594 136.007812 8.074219 133.070312 C 8.964844 130.136719 9.925781 127.222656 10.960938 124.332031 C 11.996094 121.445312 13.097656 118.582031 14.273438 115.746094 C 15.445312 112.910156 16.691406 110.105469 18.003906 107.332031 C 19.3125 104.558594 20.691406 101.820312 22.140625 99.113281 C 23.585938 96.40625 25.097656 93.738281 26.675781 91.105469 C 28.253906 88.472656 29.894531 85.882812 31.597656 83.332031 C 33.304688 80.777344 35.070312 78.269531 36.898438 75.804688 C 38.726562 73.339844 40.613281 70.921875 42.558594 68.550781 C 44.507812 66.179688 46.511719 63.855469 48.570312 61.582031 C 50.632812 59.308594 52.746094 57.085938 54.917969 54.917969 C 57.085938 52.746094 59.308594 50.632812 61.582031 48.570312 C 63.855469 46.511719 66.179688 44.507812 68.550781 42.558594 C 70.921875 40.613281 73.339844 38.726562 75.804688 36.898438 C 78.269531 35.070312 80.777344 33.304688 83.332031 31.597656 C 85.882812 29.894531 88.472656 28.253906 91.105469 26.675781 C 93.738281 25.097656 96.40625 23.585938 99.113281 22.140625 C 101.820312 20.691406 104.558594 19.3125 107.332031 18.003906 C 110.105469 16.691406 112.910156 15.445312 115.746094 14.273438 C 118.582031 13.097656 121.445312 11.996094 124.332031 10.960938 C 127.222656 9.925781 130.136719 8.964844 133.070312 8.074219 C 136.007812 7.183594 138.964844 6.363281 141.941406 5.617188 C 144.917969 4.875 147.910156 4.203125 150.921875 3.601562 C 153.929688 3.003906 156.953125 2.480469 159.988281 2.03125 C 163.023438 1.578125 166.066406 1.203125 169.121094 0.902344 C 172.175781 0.601562 175.234375 0.375 178.300781 0.226562 C 181.363281 0.0742188 184.429688 0 187.5 0 C 190.570312 0 193.636719 0.0742188 196.699219 0.226562 C 199.765625 0.375 202.824219 0.601562 205.878906 0.902344 C 208.933594 1.203125 211.976562 1.578125 215.011719 2.03125 C 218.046875 2.480469 221.070312 3.003906 224.078125 3.601562 C 227.089844 4.203125 230.082031 4.875 233.058594 5.617188 C 236.035156 6.363281 238.992188 7.183594 241.929688 8.074219 C 244.863281 8.964844 247.777344 9.925781 250.667969 10.960938 C 253.554688 11.996094 256.417969 13.097656 259.253906 14.273438 C 262.089844 15.445312 264.894531 16.691406 267.667969 18.003906 C 270.441406 19.3125 273.179688 20.691406 275.886719 22.140625 C 278.59375 23.585938 281.261719 25.097656 283.894531 26.675781 C 286.527344 28.253906 289.117188 29.894531 291.667969 31.597656 C 294.222656 33.304688 296.730469 35.070312 299.195312 36.898438 C 301.660156 38.726562 304.078125 40.613281 306.449219 42.558594 C 308.820312 44.507812 311.144531 46.511719 313.417969 48.570312 C 315.691406 50.632812 317.914062 52.746094 320.082031 54.917969 C 322.253906 57.085938 324.367188 59.308594 326.429688 61.582031 C 328.488281 63.855469 330.492188 66.179688 332.4375 68.550781 C 334.386719 70.921875 336.273438 73.339844 338.101562 75.804688 C 339.929688 78.269531 341.695312 80.777344 343.402344 83.332031 C 345.105469 85.882812 346.746094 88.472656 348.324219 91.105469 C 349.902344 93.738281 351.414062 96.40625 352.859375 99.113281 C 354.308594 101.820312 355.6875 104.558594 356.996094 107.332031 C 358.308594 110.105469 359.554688 112.910156 360.726562 115.746094 C 361.902344 118.582031 363.003906 121.445312 364.039062 124.332031 C 365.074219 127.222656 366.035156 130.136719 366.925781 133.070312 C 367.816406 136.007812 368.636719 138.964844 369.378906 141.941406 C 370.125 144.917969 370.796875 147.910156 371.398438 150.921875 C 371.996094 153.929688 372.519531 156.953125 372.96875 159.988281 C 373.421875 163.023438 373.796875 166.066406 374.097656 169.121094 C 374.398438 172.175781 374.625 175.234375 374.773438 178.300781 C 374.925781 181.363281 375 184.429688 375 187.5 M 187.5 93.75 C 186.761719 93.75 186.023438 93.789062 185.289062 93.867188 C 184.554688 93.945312 183.828125 94.058594 183.105469 94.210938 C 182.382812 94.367188 181.671875 94.558594 180.96875 94.785156 C 180.265625 95.011719 179.578125 95.277344 178.902344 95.578125 C 178.226562 95.875 177.570312 96.210938 176.929688 96.578125 C 176.289062 96.949219 175.667969 97.347656 175.070312 97.78125 C 174.472656 98.214844 173.898438 98.679688 173.347656 99.171875 C 172.800781 99.664062 172.277344 100.183594 171.78125 100.730469 C 171.285156 101.28125 170.820312 101.851562 170.386719 102.449219 C 169.949219 103.042969 169.546875 103.664062 169.175781 104.300781 C 168.804688 104.9375 168.464844 105.59375 168.164062 106.269531 C 167.859375 106.941406 167.59375 107.628906 167.363281 108.332031 C 167.132812 109.035156 166.9375 109.746094 166.78125 110.46875 C 166.625 111.1875 166.507812 111.917969 166.425781 112.652344 C 166.347656 113.386719 166.304688 114.121094 166.300781 114.859375 C 166.296875 115.597656 166.332031 116.335938 166.40625 117.070312 L 174.609375 199.265625 C 174.675781 200.066406 174.820312 200.851562 175.035156 201.625 C 175.25 202.402344 175.535156 203.148438 175.886719 203.867188 C 176.242188 204.589844 176.660156 205.273438 177.140625 205.914062 C 177.621094 206.558594 178.15625 207.152344 178.75 207.695312 C 179.339844 208.238281 179.976562 208.722656 180.660156 209.144531 C 181.339844 209.570312 182.054688 209.929688 182.804688 210.222656 C 183.554688 210.511719 184.320312 210.730469 185.109375 210.878906 C 185.902344 211.027344 186.695312 211.101562 187.5 211.101562 C 188.304688 211.101562 189.097656 211.027344 189.890625 210.878906 C 190.679688 210.730469 191.445312 210.511719 192.195312 210.222656 C 192.945312 209.929688 193.660156 209.570312 194.339844 209.144531 C 195.023438 208.722656 195.660156 208.238281 196.25 207.695312 C 196.84375 207.152344 197.378906 206.558594 197.859375 205.914062 C 198.339844 205.273438 198.757812 204.589844 199.113281 203.867188 C 199.464844 203.148438 199.75 202.402344 199.964844 201.625 C 200.179688 200.851562 200.324219 200.066406 200.390625 199.265625 L 208.59375 117.070312 C 208.667969 116.335938 208.703125 115.597656 208.699219 114.859375 C 208.695312 114.121094 208.652344 113.386719 208.574219 112.652344 C 208.492188 111.917969 208.375 111.1875 208.21875 110.46875 C 208.0625 109.746094 207.867188 109.035156 207.636719 108.332031 C 207.40625 107.628906 207.140625 106.941406 206.835938 106.269531 C 206.535156 105.59375 206.195312 104.9375 205.824219 104.300781 C 205.453125 103.664062 205.050781 103.042969 204.613281 102.449219 C 204.179688 101.851562 203.714844 101.28125 203.21875 100.730469 C 202.722656 100.183594 202.199219 99.664062 201.652344 99.171875 C 201.101562 98.679688 200.527344 98.214844 199.929688 97.78125 C 199.332031 97.347656 198.710938 96.949219 198.070312 96.578125 C 197.429688 96.210938 196.773438 95.875 196.097656 95.578125 C 195.421875 95.277344 194.734375 95.011719 194.03125 94.785156 C 193.328125 94.558594 192.617188 94.367188 191.894531 94.210938 C 191.171875 94.058594 190.445312 93.945312 189.710938 93.867188 C 188.976562 93.789062 188.238281 93.75 187.5 93.75 M 187.546875 234.375 C 186.777344 234.375 186.011719 234.414062 185.25 234.488281 C 184.484375 234.5625 183.726562 234.675781 182.972656 234.824219 C 182.222656 234.976562 181.476562 235.160156 180.742188 235.382812 C 180.007812 235.605469 179.285156 235.867188 178.578125 236.160156 C 177.867188 236.453125 177.175781 236.78125 176.5 237.140625 C 175.820312 237.503906 175.164062 237.898438 174.527344 238.324219 C 173.886719 238.75 173.273438 239.207031 172.679688 239.695312 C 172.085938 240.183594 171.515625 240.695312 170.972656 241.238281 C 170.429688 241.78125 169.917969 242.351562 169.429688 242.945312 C 168.941406 243.539062 168.484375 244.152344 168.058594 244.792969 C 167.632812 245.429688 167.238281 246.085938 166.875 246.765625 C 166.515625 247.441406 166.1875 248.132812 165.894531 248.84375 C 165.601562 249.550781 165.339844 250.273438 165.117188 251.007812 C 164.894531 251.742188 164.710938 252.488281 164.558594 253.238281 C 164.410156 253.992188 164.296875 254.75 164.222656 255.515625 C 164.148438 256.277344 164.109375 257.042969 164.109375 257.8125 C 164.109375 258.582031 164.148438 259.347656 164.222656 260.109375 C 164.296875 260.875 164.410156 261.632812 164.558594 262.386719 C 164.710938 263.136719 164.894531 263.882812 165.117188 264.617188 C 165.339844 265.351562 165.601562 266.074219 165.894531 266.78125 C 166.1875 267.492188 166.515625 268.183594 166.875 268.859375 C 167.238281 269.539062 167.632812 270.195312 168.058594 270.832031 C 168.484375 271.472656 168.941406 272.085938 169.429688 272.679688 C 169.917969 273.273438 170.429688 273.84375 170.972656 274.386719 C 171.515625 274.929688 172.085938 275.441406 172.679688 275.929688 C 173.273438 276.417969 173.886719 276.875 174.527344 277.300781 C 175.164062 277.726562 175.820312 278.121094 176.5 278.484375 C 177.175781 278.84375 177.867188 279.171875 178.578125 279.464844 C 179.285156 279.757812 180.007812 280.019531 180.742188 280.242188 C 181.476562 280.464844 182.222656 280.648438 182.972656 280.800781 C 183.726562 280.949219 184.484375 281.0625 185.25 281.136719 C 186.011719 281.210938 186.777344 281.25 187.546875 281.25 C 188.316406 281.25 189.082031 281.210938 189.84375 281.136719 C 190.609375 281.0625 191.367188 280.949219 192.121094 280.800781 C 192.871094 280.648438 193.617188 280.464844 194.351562 280.242188 C 195.085938 280.019531 195.808594 279.757812 196.515625 279.464844 C 197.226562 279.171875 197.917969 278.84375 198.59375 278.484375 C 199.273438 278.121094 199.929688 277.726562 200.566406 277.300781 C 201.207031 276.875 201.820312 276.417969 202.414062 275.929688 C 203.007812 275.441406 203.578125 274.929688 204.121094 274.386719 C 204.664062 273.84375 205.175781 273.273438 205.664062 272.679688 C 206.152344 272.085938 206.609375 271.472656 207.035156 270.832031 C 207.460938 270.195312 207.855469 269.539062 208.21875 268.859375 C 208.578125 268.183594 208.90625 267.492188 209.199219 266.78125 C 209.492188 266.074219 209.753906 265.351562 209.976562 264.617188 C 210.199219 263.882812 210.382812 263.136719 210.535156 262.386719 C 210.683594 261.632812 210.796875 260.875 210.871094 260.109375 C 210.945312 259.347656 210.984375 258.582031 210.984375 257.8125 C 210.984375 257.042969 210.945312 256.277344 210.871094 255.515625 C 210.796875 254.75 210.683594 253.992188 210.535156 253.238281 C 210.382812 252.488281 210.199219 251.742188 209.976562 251.007812 C 209.753906 250.273438 209.492188 249.550781 209.199219 248.84375 C 208.90625 248.132812 208.578125 247.441406 208.21875 246.765625 C 207.855469 246.085938 207.460938 245.429688 207.035156 244.792969 C 206.609375 244.152344 206.152344 243.539062 205.664062 242.945312 C 205.175781 242.351562 204.664062 241.78125 204.121094 241.238281 C 203.578125 240.695312 203.007812 240.183594 202.414062 239.695312 C 201.820312 239.207031 201.207031 238.75 200.566406 238.324219 C 199.929688 237.898438 199.273438 237.503906 198.59375 237.140625 C 197.917969 236.78125 197.226562 236.453125 196.515625 236.160156 C 195.808594 235.867188 195.085938 235.605469 194.351562 235.382812 C 193.617188 235.160156 192.871094 234.976562 192.121094 234.824219 C 191.367188 234.675781 190.609375 234.5625 189.84375 234.488281 C 189.082031 234.414062 188.316406 234.375 187.546875 234.375 " fill-opacity="1" fill-rule="nonzero"/></svg>