<svg xmlns="http://www.w3.org/2000/svg" xmlns:xlink="http://www.w3.org/1999/xlink" width="1080" zoomAndPan="magnify" viewBox="0 0 810 809.999993" height="1080" preserveAspectRatio="xMidYMid meet" version="1.0"><path fill="#ffde59" d="M 67.5 742.5 L 67.5 675 C 88.875 675 104.765625 669.375 115.171875 658.125 C 125.578125 646.875 147.375 641.25 180.5625 641.25 C 213.75 641.25 235.40625 646.875 245.53125 658.125 C 255.65625 669.375 271.40625 675 292.78125 675 C 314.15625 675 329.90625 669.375 340.03125 658.125 C 350.15625 646.875 371.8125 641.25 405 641.25 C 437.0625 641.25 458.859375 646.875 470.390625 658.125 C 481.921875 669.375 497.8125 675 518.0625 675 C 539.4375 675 555.1875 669.375 565.3125 658.125 C 575.4375 646.875 597.09375 641.25 630.28125 641.25 C 663.46875 641.25 685.125 646.875 695.25 658.125 C 705.375 669.375 721.125 675 742.5 675 L 742.5 742.5 C 709.875 742.5 688.21875 736.875 677.53125 725.625 C 666.84375 714.375 651.09375 708.75 630.28125 708.75 C 609.46875 708.75 593.71875 714.375 583.03125 725.625 C 572.34375 736.875 550.6875 742.5 518.0625 742.5 C 485.4375 742.5 463.640625 736.875 452.671875 725.625 C 441.703125 714.375 425.8125 708.75 405 708.75 C 383.625 708.75 367.875 714.375 357.75 725.625 C 347.625 736.875 325.96875 742.5 292.78125 742.5 C 259.59375 742.5 237.9375 736.875 227.8125 725.625 C 217.6875 714.375 201.9375 708.75 180.5625 708.75 C 159.75 708.75 144 714.375 133.3125 725.625 C 122.625 736.875 100.6875 742.5 67.5 742.5 Z M 67.5 590.625 L 67.5 523.125 C 88.875 523.125 104.625 517.5 114.75 506.25 C 124.875 495 146.53125 489.375 179.71875 489.375 C 183.09375 489.375 186.46875 489.515625 189.84375 489.796875 C 193.21875 490.078125 196.3125 490.5 199.125 491.0625 L 167.0625 372.9375 L 120.65625 433.6875 L 67.5 391.5 L 329.90625 67.5 L 718.875 216 L 694.40625 279.28125 L 623.53125 250.59375 L 691.875 504.5625 C 699.75 509.0625 707.484375 513.28125 715.078125 517.21875 C 722.671875 521.15625 731.8125 523.125 742.5 523.125 L 742.5 590.625 C 710.4375 590.0625 688.78125 584.296875 677.53125 573.328125 C 666.28125 562.359375 650.53125 556.875 630.28125 556.875 C 608.90625 556.875 593.15625 562.5 583.03125 573.75 C 572.90625 585 551.25 590.625 518.0625 590.625 C 486 590.625 464.203125 585 452.671875 573.75 C 441.140625 562.5 425.25 556.875 405 556.875 C 383.625 556.875 367.875 562.5 357.75 573.75 C 347.625 585 325.96875 590.625 292.78125 590.625 C 260.71875 590.625 239.0625 585 227.8125 573.75 C 216.5625 562.5 200.8125 556.875 180.5625 556.875 C 160.875 556.875 145.125 562.5 133.3125 573.75 C 121.5 585 99.5625 590.625 67.5 590.625 Z M 521.4375 522.28125 L 474.1875 343.40625 L 343.40625 378 L 374.625 492.75 C 379.125 491.625 383.765625 490.78125 388.546875 490.21875 C 393.328125 489.65625 398.8125 489.375 405 489.375 C 437.0625 489.375 459.984375 495.5625 473.765625 507.9375 C 487.546875 520.3125 503.4375 525.09375 521.4375 522.28125 Z M 521.4375 522.28125 " fill-opacity="1" fill-rule="nonzero"/></svg>