<svg xmlns="http://www.w3.org/2000/svg" xmlns:xlink="http://www.w3.org/1999/xlink" width="1080" zoomAndPan="magnify" viewBox="0 0 810 809.999993" height="1080" preserveAspectRatio="xMidYMid meet" version="1.0"><path fill="#ff3131" d="M 523.125 573.75 C 537.1875 573.75 549.140625 568.828125 558.984375 558.984375 C 568.828125 549.140625 573.75 537.1875 573.75 523.125 C 573.75 509.0625 568.828125 497.109375 558.984375 487.265625 C 549.140625 477.421875 537.1875 472.5 523.125 472.5 C 509.0625 472.5 497.109375 477.421875 487.265625 487.265625 C 477.421875 497.109375 472.5 509.0625 472.5 523.125 C 472.5 537.1875 477.421875 549.140625 487.265625 558.984375 C 497.109375 568.828125 509.0625 573.75 523.125 573.75 Z M 219.375 573.75 C 233.4375 573.75 245.390625 568.828125 255.234375 558.984375 C 265.078125 549.140625 270 537.1875 270 523.125 C 270 509.0625 265.078125 497.109375 255.234375 487.265625 C 245.390625 477.421875 233.4375 472.5 219.375 472.5 C 205.3125 472.5 193.359375 477.421875 183.515625 487.265625 C 173.671875 497.109375 168.75 509.0625 168.75 523.125 C 168.75 537.1875 173.671875 549.140625 183.515625 558.984375 C 193.359375 568.828125 205.3125 573.75 219.375 573.75 Z M 573.75 405 C 527.0625 405 487.265625 388.546875 454.359375 355.640625 C 421.453125 322.734375 405 282.9375 405 236.25 C 405 190.125 421.3125 150.46875 453.9375 117.28125 C 486.5625 84.09375 526.5 67.5 573.75 67.5 C 620.4375 67.5 660.234375 83.953125 693.140625 116.859375 C 726.046875 149.765625 742.5 189.5625 742.5 236.25 C 742.5 282.9375 726.046875 322.734375 693.140625 355.640625 C 660.234375 388.546875 620.4375 405 573.75 405 Z M 556.875 270 L 590.625 270 L 590.625 135 L 556.875 135 Z M 573.75 337.5 C 578.25 337.5 582.1875 335.8125 585.5625 332.4375 C 588.9375 329.0625 590.625 325.125 590.625 320.625 C 590.625 316.125 588.9375 312.1875 585.5625 308.8125 C 582.1875 305.4375 578.25 303.75 573.75 303.75 C 569.25 303.75 565.3125 305.4375 561.9375 308.8125 C 558.5625 312.1875 556.875 316.125 556.875 320.625 C 556.875 325.125 558.5625 329.0625 561.9375 332.4375 C 565.3125 335.8125 569.25 337.5 573.75 337.5 Z M 101.25 742.5 C 91.6875 742.5 83.671875 739.265625 77.203125 732.796875 C 70.734375 726.328125 67.5 718.3125 67.5 708.75 L 67.5 438.75 L 138.375 236.25 C 141.75 226.125 147.796875 217.96875 156.515625 211.78125 C 165.234375 205.59375 174.9375 202.5 185.625 202.5 L 340.03125 202.5 C 338.34375 213.75 337.5 225 337.5 236.25 C 337.5 247.5 338.34375 258.75 340.03125 270 L 197.4375 270 L 162 371.25 L 380.53125 371.25 C 403.03125 403.3125 431.15625 428.203125 464.90625 445.921875 C 498.65625 463.640625 534.9375 472.5 573.75 472.5 C 591.1875 472.5 608.484375 470.671875 625.640625 467.015625 C 642.796875 463.359375 659.25 457.59375 675 449.71875 L 675 708.75 C 675 718.3125 671.765625 726.328125 665.296875 732.796875 C 658.828125 739.265625 650.8125 742.5 641.25 742.5 L 607.5 742.5 C 597.9375 742.5 589.921875 739.265625 583.453125 732.796875 C 576.984375 726.328125 573.75 718.3125 573.75 708.75 L 573.75 675 L 168.75 675 L 168.75 708.75 C 168.75 718.3125 165.515625 726.328125 159.046875 732.796875 C 152.578125 739.265625 144.5625 742.5 135 742.5 Z M 101.25 742.5 " fill-opacity="1" fill-rule="nonzero"/></svg>