<svg xmlns="http://www.w3.org/2000/svg" xmlns:xlink="http://www.w3.org/1999/xlink" width="1080" zoomAndPan="magnify" viewBox="0 0 810 809.999993" height="1080" preserveAspectRatio="xMidYMid meet" version="1.0"><path fill="#ff3131" d="M 67.5 742.5 L 67.5 599.0625 L 202.5 642.9375 L 574.59375 518.90625 L 742.5 742.5 Z M 202.5 572.0625 L 67.5 526.5 L 67.5 464.0625 L 202.5 507.9375 L 435.375 430.3125 L 521.4375 464.90625 Z M 624.375 472.5 L 776.25 405 L 776.25 270 L 624.375 236.25 L 540 303.75 L 540 405 Z M 202.5 437.0625 L 67.5 391.5 L 67.5 270 L 270 270 L 356.90625 385.59375 Z M 405 270 L 573.75 202.5 L 573.75 33.75 L 405 0 L 303.75 67.5 L 303.75 202.5 Z M 405 270 " fill-opacity="1" fill-rule="nonzero"/></svg>